<svg width="94" height="95" viewBox="0 0 94 95" fill="none" xmlns="http://www.w3.org/2000/svg">
<path d="M46.9995 2.21048C21.8472 2.21048 1.46826 22.5299 1.46826 47.6087C1.46826 72.6876 21.8472 93.007 46.9995 93.007C72.1519 93.007 92.5308 72.6876 92.5308 47.6087C92.5308 22.5299 72.1519 2.21048 46.9995 2.21048ZM46.9995 19.784C55.9222 19.784 63.1558 26.9965 63.1558 35.893C63.1558 44.7896 55.9222 52.0021 46.9995 52.0021C38.0769 52.0021 30.8433 44.7896 30.8433 35.893C30.8433 26.9965 38.0769 19.784 46.9995 19.784ZM46.9995 82.7558C36.2226 82.7558 26.5655 77.8864 20.103 70.2712C23.5546 63.791 30.3108 59.3244 38.187 59.3244C38.6276 59.3244 39.0683 59.3976 39.4905 59.5258C41.8772 60.2946 44.3741 60.7889 46.9995 60.7889C49.6249 60.7889 52.1401 60.2946 54.5085 59.5258C54.9308 59.3976 55.3714 59.3244 55.812 59.3244C63.6882 59.3244 70.4444 63.791 73.896 70.2712C67.4335 77.8864 57.7765 82.7558 46.9995 82.7558Z" fill="white"/>
</svg>
