<svg width="75" height="16" viewBox="0 0 75 16" fill="none" xmlns="http://www.w3.org/2000/svg">
<path d="M6.32 15.14C5.29333 15.14 4.37333 14.9733 3.56 14.64C2.74667 14.3067 2.09333 13.8133 1.6 13.16C1.12 12.5067 0.866667 11.72 0.84 10.8H4.48C4.53333 11.32 4.71333 11.72 5.02 12C5.32667 12.2667 5.72667 12.4 6.22 12.4C6.72667 12.4 7.12667 12.2867 7.42 12.06C7.71333 11.82 7.86 11.4933 7.86 11.08C7.86 10.7333 7.74 10.4467 7.5 10.22C7.27333 9.99333 6.98667 9.80667 6.64 9.66C6.30667 9.51333 5.82667 9.34667 5.2 9.16C4.29333 8.88 3.55333 8.6 2.98 8.32C2.40667 8.04 1.91333 7.62667 1.5 7.08C1.08667 6.53333 0.88 5.82 0.88 4.94C0.88 3.63333 1.35333 2.61333 2.3 1.88C3.24667 1.13333 4.48 0.76 6 0.76C7.54667 0.76 8.79333 1.13333 9.74 1.88C10.6867 2.61333 11.1933 3.64 11.26 4.96H7.56C7.53333 4.50667 7.36667 4.15333 7.06 3.9C6.75333 3.63333 6.36 3.5 5.88 3.5C5.46667 3.5 5.13333 3.61333 4.88 3.84C4.62667 4.05333 4.5 4.36667 4.5 4.78C4.5 5.23333 4.71333 5.58667 5.14 5.84C5.56667 6.09333 6.23333 6.36667 7.14 6.66C8.04667 6.96667 8.78 7.26 9.34 7.54C9.91333 7.82 10.4067 8.22667 10.82 8.76C11.2333 9.29333 11.44 9.98 11.44 10.82C11.44 11.62 11.2333 12.3467 10.82 13C10.42 13.6533 9.83333 14.1733 9.06 14.56C8.28667 14.9467 7.37333 15.14 6.32 15.14ZM17.2647 0.96V15H13.8447V0.96H17.2647ZM29.3631 5.4C29.1098 4.93333 28.7431 4.58 28.2631 4.34C27.7965 4.08667 27.2431 3.96 26.6031 3.96C25.4965 3.96 24.6098 4.32667 23.9431 5.06C23.2765 5.78 22.9431 6.74667 22.9431 7.96C22.9431 9.25333 23.2898 10.2667 23.9831 11C24.6898 11.72 25.6565 12.08 26.8831 12.08C27.7231 12.08 28.4298 11.8667 29.0031 11.44C29.5898 11.0133 30.0165 10.4 30.2831 9.6H25.9431V7.08H33.3831V10.26C33.1298 11.1133 32.6965 11.9067 32.0831 12.64C31.4831 13.3733 30.7165 13.9667 29.7831 14.42C28.8498 14.8733 27.7965 15.1 26.6231 15.1C25.2365 15.1 23.9965 14.8 22.9031 14.2C21.8231 13.5867 20.9765 12.74 20.3631 11.66C19.7631 10.58 19.4631 9.34667 19.4631 7.96C19.4631 6.57333 19.7631 5.34 20.3631 4.26C20.9765 3.16667 21.8231 2.32 22.9031 1.72C23.9831 1.10667 25.2165 0.799999 26.6031 0.799999C28.2831 0.799999 29.6965 1.20667 30.8431 2.02C32.0031 2.83333 32.7698 3.96 33.1431 5.4H29.3631ZM48.1375 15H44.7175L38.9975 6.34V15H35.5775V0.96H38.9975L44.7175 9.66V0.96H48.1375V15ZM58.8748 0.96V15H55.4548V0.96H58.8748ZM74.2133 15H70.7933L65.0733 6.34V15H61.6533V0.96H65.0733L70.7933 9.66V0.96H74.2133V15Z" fill="white"/>
</svg>
