<svg width="42" height="42" viewBox="0 0 42 42" fill="none" xmlns="http://www.w3.org/2000/svg">
<path d="M21 0.65625C9.76172 0.65625 0.65625 9.76172 0.65625 21C0.65625 32.2383 9.76172 41.3438 21 41.3438C32.2383 41.3438 41.3438 32.2383 41.3438 21C41.3438 9.76172 32.2383 0.65625 21 0.65625ZM21 8.53125C24.9867 8.53125 28.2188 11.7633 28.2188 15.75C28.2188 19.7367 24.9867 22.9688 21 22.9688C17.0133 22.9688 13.7812 19.7367 13.7812 15.75C13.7812 11.7633 17.0133 8.53125 21 8.53125ZM21 36.75C16.1848 36.75 11.8699 34.568 8.98242 31.1555C10.5246 28.2516 13.5434 26.25 17.0625 26.25C17.2594 26.25 17.4563 26.2828 17.6449 26.3402C18.7113 26.6848 19.827 26.9062 21 26.9062C22.173 26.9062 23.2969 26.6848 24.3551 26.3402C24.5437 26.2828 24.7406 26.25 24.9375 26.25C28.4566 26.25 31.4754 28.2516 33.0176 31.1555C30.1301 34.568 25.8152 36.75 21 36.75Z" fill="#5B5B5B"/>
</svg>
